/* XPM */
static char *result[] = {
/* columns rows colors chars-per-pixel */
"50 50 196 2 ",
"   c #2C0E0E",
".  c #320D0D",
"X  c #3B0E0E",
"o  c #26110F",
"O  c #2B100E",
"+  c #31120E",
"@  c #3B110E",
"#  c #270F12",
"$  c #2B0E10",
"%  c #2D0D18",
"&  c #330E11",
"*  c #3B0E11",
"=  c #380F18",
"-  c #271011",
";  c #2A1011",
":  c #341213",
">  c #3B1414",
",  c #3F1816",
"<  c #341218",
"1  c #3E1419",
"2  c #3D1919",
"3  c #410F0E",
"4  c #4A0E0F",
"5  c #42110D",
"6  c #49120F",
"7  c #460E11",
"8  c #431414",
"9  c #4B1414",
"0  c #431A17",
"q  c #4D1916",
"w  c #421619",
"e  c #4D171B",
"r  c #44191A",
"t  c #4B191B",
"y  c #531415",
"u  c #5C1515",
"i  c #531915",
"p  c #5C1A15",
"a  c #53151A",
"s  c #5C1519",
"d  c #54191A",
"f  c #5C1C1A",
"g  c #651616",
"h  c #621B15",
"j  c #631619",
"k  c #68171C",
"l  c #641A19",
"z  c #6D1A1A",
"x  c #6A1E15",
"c  c #741C1C",
"v  c #7B1C1D",
"b  c #751D17",
"n  c #5C2017",
"m  c #60200D",
"M  c #692316",
"N  c #6B241A",
"B  c #642218",
"V  c #732415",
"C  c #7E2F17",
"Z  c #72251B",
"A  c #7A271E",
"S  c #75291B",
"D  c #7B2517",
"F  c #7E321C",
"G  c #461B20",
"H  c #4B1821",
"J  c #741E20",
"K  c #7D1D22",
"L  c #5C2320",
"P  c #742321",
"I  c #7B2B23",
"U  c #7F3025",
"Y  c #831E1E",
"T  c #8D1E1E",
"R  c #931F19",
"E  c #9D1F1E",
"W  c #A11F1D",
"Q  c #83201C",
"!  c #8A231E",
"~  c #852F1E",
"^  c #95221E",
"/  c #9C211E",
"(  c #902F1E",
")  c #9D2B1B",
"_  c #83301E",
"`  c #8A331D",
"'  c #893819",
"]  c #913A1F",
"[  c #A2231C",
"{  c #A72A1E",
"}  c #AC2A1D",
"|  c #A72519",
" . c #A13D1F",
".. c #AD381F",
"X. c #B4351E",
"o. c #B63B1E",
"O. c #831D20",
"+. c #8D1F23",
"@. c #931F20",
"#. c #9D1F22",
"$. c #A11E22",
"%. c #832122",
"&. c #8D2122",
"*. c #872C21",
"=. c #8E2E27",
"-. c #942122",
";. c #9B2121",
":. c #902E25",
">. c #9B2C25",
",. c #8A3123",
"<. c #8D312B",
"1. c #933223",
"2. c #9B3524",
"3. c #953D21",
"4. c #9D3A23",
"5. c #95322B",
"6. c #983729",
"7. c #A32422",
"8. c #A52B23",
"9. c #AA2A25",
"0. c #A22928",
"q. c #AA2829",
"w. c #B02D21",
"e. c #A43224",
"r. c #AC3123",
"t. c #A53C25",
"y. c #A43B2A",
"u. c #AC3A29",
"i. c #A4362B",
"p. c #B23325",
"a. c #B93624",
"s. c #BB3D22",
"d. c #B33329",
"f. c #BB362B",
"g. c #BB3C2B",
"h. c #B53B2E",
"j. c #C83E29",
"k. c #C23E29",
"l. c #9C411F",
"z. c #AD471F",
"x. c #A2441E",
"c. c #994327",
"v. c #A04124",
"b. c #AA4424",
"n. c #AD432E",
"m. c #AD4924",
"M. c #B04320",
"N. c #B94426",
"B. c #BA432A",
"V. c #B24929",
"C. c #BE532B",
"Z. c #B75525",
"A. c #B74B31",
"S. c #C4451F",
"D. c #ED7B1E",
"F. c #C44323",
"G. c #CA4325",
"H. c #C54A25",
"J. c #CB4A23",
"K. c #C8452E",
"L. c #D44922",
"P. c #D24E2C",
"I. c #CF5227",
"U. c #C25A26",
"Y. c #C3522A",
"T. c #CD562F",
"R. c #C55B28",
"E. c #CD5C29",
"W. c #D65A25",
"Q. c #DA5C27",
"!. c #D3552D",
"~. c #DC572D",
"^. c #D45C2C",
"/. c #DC5C2D",
"(. c #C34830",
"). c #D55D30",
"_. c #DB5B30",
"`. c #D45438",
"'. c #CF6129",
"]. c #DF6425",
"[. c #D7612F",
"{. c #DD642C",
"}. c #DC6433",
"|. c #DB6830",
" X c #E2642A",
".X c #EC6D29",
"XX c #E4692A",
"oX c #ED7426",
"OX c #E67A23",
"+X c #EC7A24",
"@X c #E7732C",
"#X c #EB742B",
"$X c #F07526",
"%X c #F07A26",
"&X c #EA6734",
"*X c #EC7330",
/* pixels */
"%   u 7.@.. $ $ $ v #.B.& $ $ $   $ $ $ $ $   $ $ $ $ $ $ c 7.1 $ $ $ $ # $ > $ $ $ $ $ $ -.e ; ; ; ",
"& $     $ & y   $ y ;.oXt > $   $   $ $ $ $ $ $ $   $ $ $ y ;.t $ $ $ $ $ $ 8 r O $ $ - $ l t e t . ",
": $ $ $ $ $ $ 8 $ w ;.+Xd t & O 1 8 .     o     $ $ $     4 ;.q : $ $ $ $ $ $ r 8   O : t t .XT.,.e ",
"$ $ $ $     $ % $ t h $X`.q q t ` 3.q > 1 2 :   $ $   # $ r f t > ; $ $ $ $ $ ; . r e t t ' Q.H.X.p.",
"1 $ $ $ $ $   $ t t e.^ O.W ;.7.;.[ r.I *.B q t >   &   r ~ H.y.i e t r $ O ; ; $ $ t t y.^ $ $ . O ",
"u.t $ $ $ $ > t <./ a $ $ O $ o $ K / ^ v > . & a 5.t 8.&.&   . c W ;.1.t t r : t i 7.;.W 9 $ $ $ ; ",
"y Y.H O O ; t t ^ @ $ $ $ $ $ $ ^ #.;.u O $ $ $   i G.> ; ; . y u -./ / 8.2.u t d [ / ^ E ^ Y +.$ % ",
"O ^ (.t & t q 8.* $ $ $ $ $ $ $ #.Y   - O $ $ $   i ;.$   $ ! $   &   o % v | +X{ ^ l . $ X E #.g $ ",
"$ & Y L.` V E 9 $ $ $ $ $ $ $ g k $ $ $ $ $ $ ; > 1.@ $ $ $ $ $   $ $ $   $ r Y.w $ # $   $ h $.;.$.",
"  $ $ ^ +XN.K $ $ $ $ $   - $ ^ t     $ $ $ $ : e d.  $ $   $ & $ $ $ $ $ $ t n.> $   $ $ $ $   . u ",
"*   ; ;.I.K O $ $ $ $   $ # 6 c t       $ $   t t C.> $   $ $ w $ $ $ $ $ $ r V.&   $ $ $ $ $ $   $ ",
"@.O ; ;.{ V n t   $ $ $ $ & c $ t 0 > . O ; 8 t U.+Xr ; $ ; ; , $   $ $ $ $ G 3.> $ $   $ $ $ $ $ $ ",
";.$ % v ^ e.8 r.i 1   $ $ s $ $ $ $ : O r n.W ^ E [ d.q q i t $ $ $ $ $ $ r !..X9 O   $ $ $ $ $ $ $ ",
";.; $ : Z * $ $ K.q w > ;   $ $ $ $ : $ 1.+.  +.;.7.-.$.#.^ >.$ $ $ $ $ r i.O.z 1.>   $ $ ; $ $ $ $ ",
"> X $ e |.  $   u #XD p $ $ $   $ $ ; : {   $ $ @.#.*   . u #.w $ $ $ w C.;.- ; &.:.: : 2 : $ $ $ $ ",
"    r i Q.$   $ q r.#.E B.*     $ ; ; 8 T   $ $ 5 ;.9 $ $ O ;.r $ $   Z 7.^ $ ; O g 5.q X   $     $ ",
"  t x oXX $ $   k.v ;   . ;.;.V.t <   C j $ $ $ $ Y 9 $ $   @.g.a e <.v . $ $ $ $   u ^ 1.=     + $ ",
"N d.a.#X> ; + _ O.;   $ $ @ ;./ N.e t #Xy $ $ $ $ c 8 $ $ $ 9 #.OXW.^ $ $ & $ $ $   # #.E p > r m y.",
"j $ . X.^.: Z./ % O $ $ $ $ &.;.E X.+X+Xb $ $   $ ^ $ $ $ $ $ g J.-.: $   $ $   $ $   y W { R.*XX.y ",
"j ; % c B.+XF.j $ $ $ $ $ $ X &.o &.o.D.9 $ $ $ & #.$ $ $ $ $ - W r   $ >   $ $ $ $ $ $   ^ k.~.z $ ",
"$ $ $ $ Y +X$.7 ; $ $ $ $ % $ O.$ ; ;.P.  $   $ $ 6 y   $ $ $ o ^ A 0 > o $   $   $ $ $ $ # t f.  $ ",
"$ $ $ $ v #X-.$ $ $ $ $ $ $ y . $ $ R k.; ; $ $ $ $ v   $ $ $ $ u /.t $ $ $ $ $ $ $   $   1 t b.&   ",
"$ $ $ $ v Q.u % $ $ $   $ $ h $ $ $ z / t & ; $ $ $ +.# $ $ $ $   | m.% $ $ $ $ $   $   r & 0 N.j $ ",
"& $ O $ c +Xc $ $ $ $ $ $ $ j $ $   a ;.w.i :   $ $ o K $ $ $   & u -.3.& $ $   $ $ $ $ $ $ e [ z $ ",
"  $ & O & OX-.X     $ $   $ =   $   $ $ ;.}.t   $   $ & @.  $ $ O $ - k.1 $   $ $ $ $ $ $ $ t.^ - $ ",
"$ $ $ $ q +X} .   $ $ $ $ $ $ $ $ $ $ ; . W q   $ $ $ $ # $ $ $ $ $ $ J.r $ # $ $ $ $ $ $ % J.. $   ",
"$   $ $ ~ +X{   $ $ $   $ $ $ $ $ $     O s $Xt t 1 > : r ,   $ $ > e @Xs :   $ $ $ $ $ + t {.a $ $ ",
":   & r T.) E   $   - % $ $   > r t t t n ^.D.+XU.' Z.@XW.W.4.f I '.+X+X+Xn t q e t d b. X[ &.#.9.` ",
"{.a q f { @ /   $ ; : t r t q q 4.{.G.9.j ! / X.^ @.^ u $ K +X-.u c R E $.[ P.XX@Xa.^ ^ a   $ $ O.E ",
";. XM.P.o O V q : 0 a d ,.c.T.[ a 5 X +   $     $ $ $ $ > N 8.;   $ & $   * 9 y F.i $ o $ $ $ $ %   ",
"& @.].q $ * OXB.M C [.[ -. X;.& $ $ $ $ 8 $ $ ; $ $ $ : s [ X   $ $ $   $ $   $ a b.> ; $ $ $ $ $ $ ",
"$   E E.$ u.$.b / / y o : g.- $ $ $   5 o $ $ $ $ $ $ m.z $ ; $ $ $ $ $ $ $   $ $ c e t   O j $ $   ",
"$   ^ F.9 / y $ y 7 $ $ > r.O ; $ $ O c $ $ $ $ $   . a.& $ $ $ $ $ $ $ $ $ $ $ $   /.t   $ v = $ $ ",
"#.j u #.oX;.o o $ s #   8 5.w O $ $ O f $ $ $ ; $ $ < [ $ $ $ $ $   $ $     $ $ $ $ 9.q $ $ & #.@.a ",
";.#.#.;.a.v $   $ $ $ %   t S 8 $ $ $   $ $   ; ; ; > ;.$ $ $ ;       : & $ $   $ $ P t   $ O t c #.",
"g / / ;.^ z $ $ $ $ $ $ $ & d e $ $ $   $ $ < e e e S f.Z d t > # r $ $ $ $ $ $ $ $ 6.t : $ $ O $   ",
"  5 ;.[ ;.X $ $   $ o 2 $   q a $ $ $ $ > t t t r P ^ 7.#.$.P.f t : $ $ $ $ $ $ $   n.t & $ $ $ $ $ ",
"$   ;.q.;.; $ $ $ $ ;   $ O t N $ ; $ $ q & $ ; M / E   8 Q #./ M & $     $ $ $ $ $ C.t $ $ $ $ $   ",
"$ $ K 7.-.: $ $ $ $ $ $ $ O t N $ : r :     # ,.$.;.o $ $   J O.d.> $ $ $ $ $   $   V > $ $ $ $ $ $ ",
"$   c 0.a > $ $ $ $ $ $ $ $ r U $ $ $ $ $ $ X ;.$.& $ $ $ . & 7 $.t $ $ $ $   # $ $ q >   ; ; $ $ $ ",
"    y  Xq >   $   $ $ $ $ $ : I   $ $   $ : i ;.4 $   $ $   # $ ;.n & $ $ $ $   $ $ x e t r ;     $ ",
"  > l.+XU.t > O $ $ $ $ $ $ $ d : O $ : t I F.9 $ $ $ $ $ $   $ c 2.,     O $   $ >  X!.Y.[.O O $ $ ",
"K.~.k.o.H.L.&Xp & $ $ $ 0 t d _.*.S 2.[ ^ v W w $ $ $ $ $ $ $ $ $ ;.N 0 w r t a ] 7.;   $ 2./.t   r ",
"E Q W / ^ / ;.~.q t     ( w.^ E &.&.;.k ;   E 8 $ $ $   $ $   # : M k._.N.j.p./ } 1.; ; ; g./ J.x.$X",
"&   . @.;.Y ;.7.S t : t $.;.. ;   $ $ ; $   #.t $ $ $ $   $ $ : r 7.Y Y Y &.Y X y / 2.> i c.v -./ #.",
"  $ ^ -.@ $ J / /.e q t.;.O   $ $ $ $ $ $   ;.t   $ $ $     $ t y.-.  $ $ $ $ $   5 / R c h.t O   9 ",
"; z $ $ $ $ $ $ ^ ^ _.p.$ $ $ $ $ $ $ $ $ $ g o.m.i w = > r H :.-.% $ $ $ $ $ $ $ $ O.E =.V t     $ ",
"%.$ $ $ $ $ $ $ O g 7.;.$   $ $ $   $ $ $   . / ^ / ;.9.g.2.,.^ . $   $ $ $ $ $ $ $   K #.W t $ $ $ ",
"O.  $ $ $   $ $ $ & 9.;.$ $ $ $ $ $ $ $ $ . -.-.8 g W ^ ;.W { u $   > $ $ $   $   $ $ $   ;.t   $ $ ",
"&.  $ $ $ $ $ $   & 9.b $ $ $ $ $ $ $ $ o g @.$   $ $ * i / v $ $ $   $ $ $ $ $ $ $ $ $   ;.t   $ $ "
};
