/* XPM */
static char *result[] = {
/* columns rows colors chars-per-pixel */
"50 50 119 2 ",
"   c #000000",
".  c #080707",
"X  c #080806",
"o  c #0B0B0B",
"O  c #10100F",
"+  c #151413",
"@  c #1B1917",
"#  c #1E1E1B",
"$  c #271B07",
"%  c #261D0C",
"&  c #291F0D",
"*  c #291F10",
"=  c #27200E",
"-  c #2A210E",
";  c #32240F",
":  c #262010",
">  c #2C2312",
",  c #2F2816",
"<  c #24221C",
"1  c #2C241A",
"2  c #2F2A1E",
"3  c #322513",
"4  c #352915",
"5  c #3A2C16",
"6  c #352B1A",
"7  c #3C2D1A",
"8  c #3D301C",
"9  c #262522",
"0  c #282623",
"q  c #2B2924",
"w  c #2D2C29",
"e  c #302D25",
"r  c #312E29",
"t  c #373020",
"y  c #3D3422",
"u  c #3F3826",
"i  c #36332D",
"p  c #3B362C",
"a  c #3A382F",
"s  c #373730",
"d  c #3E3C34",
"f  c #3E3E38",
"g  c #402F19",
"h  c #42321E",
"j  c #443522",
"k  c #483621",
"l  c #473824",
"z  c #493A26",
"x  c #443C2A",
"c  c #4B3D2A",
"v  c #403E36",
"b  c #403E38",
"n  c #4C412D",
"m  c #464031",
"M  c #4C4433",
"N  c #4F4836",
"B  c #45443D",
"V  c #49443F",
"C  c #514937",
"Z  c #544C3B",
"A  c #57503E",
"S  c #59503F",
"D  c #514D43",
"F  c #524F4A",
"G  c #565041",
"H  c #5B5443",
"J  c #5E5846",
"K  c #5C554A",
"L  c #5F5949",
"P  c #5E5B55",
"I  c #605746",
"U  c #625847",
"Y  c #635C4C",
"T  c #695E4D",
"R  c #635D52",
"E  c #69614E",
"W  c #666052",
"Q  c #6B6454",
"!  c #6F6856",
"~  c #656459",
"^  c #6B655B",
"/  c #6E695A",
"(  c #706756",
")  c #706856",
"_  c #706758",
"`  c #746D5C",
"'  c #786F5E",
"]  c #77705E",
"[  c #78715F",
"{  c #6F6D61",
"}  c #716C62",
"|  c #777162",
" . c #7B7363",
".. c #7E7965",
"X. c #777369",
"o. c #7C756A",
"O. c #7D7A6A",
"+. c #7F7C71",
"@. c #817766",
"#. c #827B66",
"$. c #847D6C",
"%. c #8A7C6F",
"&. c #847F73",
"*. c #878067",
"=. c #87806D",
"-. c #89816E",
";. c #868172",
":. c #8B8472",
">. c #8F8875",
",. c #8C8379",
"<. c #948C77",
"1. c #91867A",
"2. c #948C7B",
"3. c #97917D",
"4. c #9A947D",
"5. c #968F82",
"6. c #979183",
"7. c #9A9381",
"8. c #9E9883",
/* pixels */
"                                                                                                    ",
"                                    B { +.    B 1.7.4.3.D                                           ",
"                                V 6.7.<.3.p :.3.#.=.3.7.o.R   o q O                                 ",
"                              } =.$.-.*.#.#.-.=.*.=.#.$.#.} o.;.&.$.2.o.                            ",
"                      o o.7.3.` ` ] | ` Z H @.$.%.$.%.` } H ` $.$.-.$.;.o..                         ",
"                      6.7.7.2.:.Y Y ` Y x u H K Q  .` } Y Z @.` $.;.&.-.H o                         ",
"                      =.-.#.$.#.W y Z u 6 3 % * * > * 1 x c G ( ` | )  .L 0 o X                     ",
"              . 9 + o $.|  . .^ t , : > > % 6 > % * * * * * * 3 8 Q / U ] 4.7.4.o                   ",
"              O.2.#.;.Z Q ^ Z M > > > & % % , * * * > % : : : > > , u x ) #.;.-./                   ",
"            b O.:.:.` 6 > 3 > > > > & > & & * & > : > > > % * * % : % 6 ` | -.$.,.q                 ",
"          P 3.:.` ) A = * * * & % > 3 > , > * & > 4 5 5 3 & % % > % > % > Z H ` %.;.+               ",
"          $.$.=.! N x = & * & % % 3 7 5 3 > 6 3 6 4 h ; 6 > % * % , , = * & 6 H ` L                 ",
"          m ] ] H x > % > 3 3 3 > 4 8 7 ; ; 7 , 7 g g y 6 > & > % 7 6 > = & > > x Y 0 .             ",
"          < > , x 6 & = 3 3 8 ; , 4 5 7 4 & 3 , 7 g k h l * > 3 & 7 8 > 4 = & =  .$.#.} q           ",
"      . :.` ` J u % = 5 ; 8 5 4 4 5 g 5 5 y t 6 j l k l l 6 t > & k h 5 7 , = & >  .8.=...i         ",
"      0 6.7.>.` N > = h 5 7 7 5 , 4 h h h 5 7 6 j l j z 7 7 g 3 > k z 7 5 4 ; = > C -.1.#.U         ",
"      w $.$.%.-.N 3 ; h 7 h 6 5 > 5 8 l 7 7 7 t c l c z l 6 h 3 * j l l h h 3 * * u } 2. .H         ",
"      + ;.=.` Z x & 3 k z j g 7 , 4 h z j g 7 > z h 7 c g 7 7 3 * j z h h 7 3 * * * ` %.' H         ",
"      o &.#. .` C > & c z l h 6 4 - g n y k 5 > j h l c h 7 7 ; * z l l h g 3 3 % % ' |  .S         ",
"        K @...[ N * 3 c c j h 5 4 $ 8 z j l 7 & z 8 z l h 7 7 4 * z j h h g 4 3 & %  . .Y n         ",
"      B @.U C n > % > z l l j 4 , = h z 5 l 7 , l h z h 7 5 7 8 * l j 3 k g 7 > * > Z _ T c         ",
"      :.<.3.@.Q 7 * 3 z h j j 4 , $ h h h h h > j h z h 5 g 5 8 * l h y h g 7 3 > > :.5.1. .O       ",
"    O $.=.>.] A u , 3 h c 8 h 5 , $ g h c j 4 = j h l 7 4 5 7 5 * l j k h h 7 5 3 6 $.` [ | 1       ",
"    + ..=.=.! ` , , 8 h z 8 h 5 = - h h h 5 3 > 8 j c 8 h 8 5 5 * l l j 7 k g 7 , Z $.7.-.$.q       ",
"      #.>.3.2.] 4 > 8 h z h 8 5 ; - h l k 5 5 > 8 l z z 7 4 5 5 & l z z h h g 7 3 A $.;.#. .r       ",
"      q o.,.$...6 > 6 l l l h 5 > 4 z z l 4 j > l h z c l l 7 8 = l l h h 7 g 3 3 C $.;.}  .u       ",
"      w } n u > = > 7 l l h h 5 4 j z k 4 4 h > x z l z l j 8 8 > l l h j l g 6 3 C :.$.) Q 6       ",
"      + } C v c 6 , 5 l h h h 5 > j l z h 7 7 % c h z l c l 5 5 ; l l z l c j j , z -.o.! H c       ",
"        } T I  .c 6 t z l h h 6 % u l h z 7 7 & j k k l c c 5 6 - l l c h l h h 6 > `  .H x t       ",
"      o o.$.` Y x 4 h g 5 h 7 3 % 8 z l j j 3 * 7 z y c l h 7 4 & l h z h z k 7 7 > x K U H <       ",
"      F &.%.$.K v 3 g g 5 h 5 3 = 7 z z j 7 7 % j l j z z 4 7 3 > l n n h z l 3 7 = u &.=.} H X     ",
"      W =.-. .D c 4 k h h 5 5 > = 8 z z 7 h 8 % 8 l h h 7 5 5 5 ; h h c h z h 7 4 > 6 &.$.;.] <     ",
"      ~ ;.#.#.Q m 6 x h h h g 6 * g g z h j 7 % g l c j 7 ; g 3 * h j g 4 c z g 3 6 , $.$.$.[ N     ",
"      ~ :.%.$.Q u 6 c l h l 7 7 * g k h l z l $ g l l j h g 3 5 * k j j 7 l z h > 4 > $.&.-.` N o   ",
"      s &.:. .( 6 y l c k k 7 3 1 h k h j j 7 * g k l j c g 5 * % g j 6 4 k h h 4 = > -.,.3.` Z o   ",
"        5.[ [ Y & 8 c g k k 7 3 7 k h h z j * 1 j k k 1 z 5 5 3 * k h h h h h l 6 > > Q Q E u .     ",
"        ^ ` } H * j l j c z 7 3 5 k h h h y > * j g g g z 7 7 3 > h h h 7 h l h 6 > 6 ;.4.>.=.q     ",
"      @ | ` ` L 2 h j h h z 7 3 t j k h j y 3 $ t t 3 h h h 5 3 % z h l h l h h 3 : 6 :.7.>.` L o   ",
"    o ;.$.;... .1 k k g c g 5 * t g j j k h , % g g h g h 7 7 3 % l 7 h h l h 7 3 = : =.*.o.L H .   ",
"    # $...=.Q ' 6 g z g z h 6 * h j j l z h 3 & 7 5 h j j h 5 4 & h h h h h h h ; = > ;.3.:.] D     ",
"    # 1.;.#. .) > 7 z h c k 7 > j j h c c k 4 & 6 5 l l l 7 8 4 - h h h l g g h ; = % O.=.:...G     ",
"      >.3.#.' C 3 5 z h k 7 5 , 7 y 7 c c h j > 7 5 l l l h 7 4 - h h h g h k 5 4 = >  .#.$.:.s     ",
"      / @.H Z 4 3 7 j j z 5 6 , j 8 j c c c 3 * g h 7 l z 8 5 8 - 5 h h 7 5 7 g 4 > 6 ] A 6 m x X   ",
"    R 3.3. .E M > h c j h 5 4 , j z 5 j z 6 g * 3 h 7 h l h 4 8 & 3 g h h 3 7 g , 8 > | =.3.=.! <   ",
"    ,.O. .[ ] S 3 h n h 7 ; 4 - 8 z 8 l z ; h > 3 h h h j 8 5 > % 4 7 k k 6 7 g , 8 > ] >.:.@.[ 2   ",
"    +.=.=.7.) S , 8 z l h 4 3 - h l 5 8 c ; 4 = 3 h 5 7 8 8 ; 3 % * 3 7 6 7 * ; , 6 = [ ;.[ ] @.w   ",
"    O.$.4...! Z 6 8 h 8 4 = $ ; 8 n 5 4 8 5 5 & > ; - ; 8 8 3 = & & 3 4 5 4 $ > = > > Q @.#.=.W *   ",
"    o.&.=./ H N = M C , = 8 7 l u u , 7 4 8 6 l ' ( M $ 6 7 8 u j M y 3 > = > 8 x C ` H  .o./ Z .   ",
"    r R H Q V 1 I L Q } / R W R Q W R L J H J J L W ^ o.....O.#.@.} X.} ` / / W L H H 6 p K @       ",
"                . .                   o < < q i d d d d d v s e r q 9 * o o o o + + @ .             "
};
