/* XPM */
static char *a9cfbe27eede4bb098400ce27a11e214WB9BxlhouFCTNsSV[] = {
/* columns rows colors chars-per-pixel */
"50 50 236 2 ",
"   c #000000",
".  c #0A0707",
"X  c #070709",
"o  c #0C0B0B",
"O  c #140A0A",
"+  c #170F0D",
"@  c #0F120C",
"#  c #0D0E14",
"$  c #131412",
"%  c #1B1213",
"&  c #1A1A15",
"*  c #171819",
"=  c #2B0D12",
"-  c #2F0F10",
";  c #2C1214",
":  c #261719",
">  c #341719",
",  c #1E2318",
"<  c #3A2C0C",
"1  c #24251A",
"2  c #252C1C",
"3  c #362718",
"4  c #2B351B",
"5  c #2F3B1D",
"6  c #3A3418",
"7  c #323C1F",
"8  c #1E1F21",
"9  c #221E2E",
"0  c #262526",
"q  c #362A29",
"w  c #342C2A",
"e  c #333525",
"r  c #343C24",
"t  c #3A3927",
"y  c #353228",
"u  c #282838",
"i  c #362D38",
"p  c #393537",
"a  c #490C0B",
"s  c #610E0A",
"d  c #66110D",
"f  c #6A110B",
"g  c #74130F",
"h  c #6B1518",
"j  c #761411",
"k  c #791714",
"l  c #7C1B1D",
"z  c #57241A",
"x  c #41351C",
"c  c #6A261E",
"v  c #732019",
"b  c #441722",
"n  c #5C1B29",
"m  c #6D1B28",
"M  c #731A22",
"N  c #452527",
"B  c #582B29",
"V  c #58352F",
"C  c #512E33",
"Z  c #493833",
"A  c #553936",
"S  c #6A2629",
"D  c #7C2529",
"F  c #6C2931",
"G  c #643537",
"H  c #6B3334",
"J  c #743936",
"K  c #7C3C36",
"L  c #34421F",
"P  c #354323",
"I  c #384427",
"U  c #394B25",
"Y  c #3C4C2B",
"T  c #3E4F2C",
"R  c #6E5515",
"E  c #48422D",
"W  c #445828",
"Q  c #5F5722",
"!  c #524937",
"~  c #475537",
"^  c #2C2E46",
"/  c #362E48",
"(  c #2D314A",
")  c #35344B",
"_  c #373553",
"`  c #353C5C",
"'  c #3A3E5F",
"]  c #3A3F61",
"[  c #463E4B",
"{  c #433A5A",
"}  c #443D62",
"|  c #3C424C",
" . c #3D4467",
".. c #3D456B",
"X. c #3E4970",
"o. c #584744",
"O. c #514E52",
"+. c #664545",
"@. c #774B45",
"#. c #685449",
"$. c #77524D",
"%. c #785C57",
"&. c #45496C",
"*. c #5A5967",
"=. c #414C75",
"-. c #454E76",
";. c #4F5670",
":. c #4C5772",
">. c #43517C",
",. c #605260",
"<. c #5F626C",
"1. c #666769",
"2. c #746D6D",
"3. c #851916",
"4. c #97261C",
"5. c #A4321E",
"6. c #882729",
"7. c #9C2B25",
"8. c #9C362E",
"9. c #903433",
"0. c #AB3625",
"q. c #B5352B",
"w. c #C2382D",
"e. c #C83D34",
"r. c #B6431F",
"t. c #8E701A",
"y. c #A47B1B",
"u. c #8C4439",
"i. c #98483A",
"p. c #9C5039",
"a. c #B34329",
"s. c #A9443A",
"d. c #A65837",
"f. c #B45331",
"g. c #916D3E",
"h. c #AF7137",
"j. c #C45629",
"k. c #CF4F37",
"l. c #E2483D",
"z. c #D66434",
"x. c #E97039",
"c. c #964E49",
"v. c #86574D",
"b. c #8D564D",
"n. c #9B574B",
"m. c #8B5C57",
"M. c #AD564B",
"N. c #966854",
"B. c #99655B",
"V. c #A76457",
"C. c #B5675B",
"Z. c #BA7751",
"A. c #836363",
"S. c #8D6563",
"D. c #926465",
"F. c #9C6A62",
"G. c #936868",
"H. c #9B6D69",
"J. c #967576",
"K. c #A76D64",
"L. c #A97865",
"P. c #A3726B",
"I. c #A9746C",
"U. c #B7766A",
"Y. c #B47A6D",
"T. c #B77B74",
"R. c #D95A4C",
"E. c #C37847",
"W. c #CE6D50",
"Q. c #F16A52",
"!. c #C6796A",
"~. c #C57F70",
"^. c #BC8E1D",
"/. c #F7A719",
"(. c #D4862D",
"). c #E78236",
"_. c #D4AD31",
"`. c #F6B031",
"'. c #AF8354",
"]. c #878268",
"[. c #B98767",
"{. c #B78976",
"}. c #F2984C",
"|. c #D4816F",
" X c #C88577",
".X c #D58B79",
"XX c #F7CA75",
"oX c #FBDF76",
"OX c #F9EC70",
"+X c #475683",
"@X c #495886",
"#X c #4C5C8B",
"$X c #525B80",
"%X c #5C6988",
"&X c #4F6191",
"*X c #526495",
"=X c #56699B",
"-X c #6B738A",
";X c #7C7C82",
":X c #5A6EA4",
">X c #5C71A9",
",X c #6377AB",
"<X c #667BB5",
"1X c #667CB6",
"2X c #6D83BD",
"3X c #7589B6",
"4X c #848689",
"5X c #8B8B92",
"6X c #919299",
"7X c #AF9192",
"8X c #9C9BA5",
"9X c #A7A2A9",
"0X c #B1A5AA",
"qX c #B0ADB4",
"wX c #B5B6BC",
"eX c #CB9885",
"rX c #DB9886",
"tX c #E19884",
"yX c #DFA08E",
"uX c #DDA796",
"iX c #F1BD86",
"pX c #E5A894",
"aX c #EAB6A4",
"sX c #F8D092",
"dX c #FAE792",
"fX c #F1D5B1",
"gX c #FAE4B1",
"hX c #C7C5CA",
"jX c #CBCDD3",
"kX c #D6D6DB",
"lX c #F5D8C4",
"zX c #FAF4C0",
"xX c #FBF7DB",
"cX c #DCDFE5",
"vX c #FCF8EB",
"bX c #FDFCF5",
/* pixels */
"                                                                                                    ",
"                                                                            . R y.R t.R +           ",
"                                  * ) :.%X%X%X:.&.| $                       6 `./.dX`./.^.          ",
"                              # &.,X,X>X2X2X2X2X1X<X3X*.o                   Q OXdXvXXXoX_.1         ",
"                            * @X+X>.@X:X2X2X2X2X2X1X>X=X-X$               < _.dXbXbXbXxXXXh.        ",
"                          X =.X...=.+X=X,X<X<X<X<X,X>X=X#X<.              t.`.XXbXvXbXvX}.g.        ",
"                          u =.' ..=.>.&X=X:X:X:X:X:X=X*X+X$Xp             < (.gXfXgXxXlX}.E         ",
"                          X. .' ..=.>.@X&X*X=X=X*X*X*X@X>.-.*.              w '.sXzXxXiXN.          ",
"                          =. .`  .=.>.+X@X#X&X&X&X&X&X@X>.-.&.                3 Z.{.#.w o           ",
"                          u ] _  .X.>.+X@X#X#X#X&X&X&X@X>.&.{                     X                 ",
"                          # ] _ ' X.>.>.@X@X#X*X&X&X&X+X=.&.)                                       ",
"                            ( _ ` ..>.>.>.+X@X@X@X@X@X>.&.} [ U ,                                   ",
"                          X * ) _ ..X.=. .*.J.7XJ.,.O.' ' { [ 2 u ^                                 ",
"                      X { { o / ) ] ] O.i q {.aXuXo.m.q i _ { u :.&.*                               ",
"                      # { { 9 / / ( i m.A @.F.7X,.I.n.U.b.u _ { { _ X                               ",
"                        9 ) / ^ u +.+.^ ] &...[ eX X!.pXeXZ u u 9 X                                 ",
"                        o 0 i Z Z B.V.u ( _ ` @.yX XU.{.I.v.$                                       ",
"                        & 2 B.n.E L.rX+.u ^ / C.rXuXK.T.rX[.2 X                                     ",
"                        $ 1 B.E 7 Y.aXuX XB.Y..XpXfXlXpXrXpX! 2                                     ",
"                        $ W U 5 v.~..XrXrXrX.XM.!.|.|.!. X|.V.7 W 4                                 ",
"                        5 r 7 4 F.U.~. X.XK. XB.c.n.c.b.Y.U.U.t r P                                 ",
"                        1 W r 4 B.Y.Y.Y.Y.$.G m.v.@.v.v.F.I.P.E 4 r o                               ",
"                        4 5 4 4 %.P.I.I.I.B.- > o.#.o.@.I.P.H.E 4 ,                                 ",
"                        $ 1 P r ! D.H.H.P.P.b.c a > C P.P.H.G.E 7 &                                 ",
"                          @ P P I %.S.G.H.P.P.F.F.S.F.P.H.G.%.L P @                                 ",
"                            & 2 U I A.S.S.S.G.G.$.#.S.G.D.A.r U 4                                   ",
"                          = 8.q.x P r o.S.G.S.%.P U #.G.%.I Y 7 %                                   ",
"                        ; e.e.q.k 3 r U r ! o.e 7 U ~ t U W 7 c 6.O                                 ",
"                      z e.q.4.j s d z W r W 7 4 P U W U W W v j 4.7.O                               ",
"                    O 7.4.j d s s s k t $ , 4 4 P 5 Y t V B 4.j j 7.8..                             ",
"                    S 4.f s s s s d 3.z o   $ 5 4 r @.H H F 4.4.g k q.9..                           ",
"                  ; q.k s s d d h 3.a.s.5X;X4X1.].[.i.u.K J.s.a.j j 3.3.z.h.3 X 0 :                 ",
"              X h.z.4.f d h M h 3.w.x.W.wXjXcXfX'.n.E.p.D.kXT.z.3.k j 0.r.k.M.B.!. X&               ",
"              B Q.q.4.4.h M M l q.l.x.W.0X7XT.E.d.i.'.F.kXkX0Xz.0.l k 5.3.4.M.C.C.pX{.              ",
"            . R.R.3.g l 9.M l 7.l.l.).8.H K i.f.d.p.E.kXkXjX0Xk.j.6.6.D l i.C.i.n.C.U..             ",
"            : D.c.D h m 9.D 6.q.e.w.(.D G K u.u.Z.eXhXkXhXwX9Xs.j.6.6.S S C.n.n.U.~.Z               ",
"            X 6XqXD.F n n 8.a.a.a.f.h.G +.$.G.0XkX2.qXhXqX8X4X9.j.a.D     A V.V.tX$.X               ",
"        0 8 X 5XwX%.; .   : H u.d.d.K 2.6X8X8X8X9X4X6X4X1.O.I c f.6.b       A n.v..                 ",
"      *.4X1.6X;XX           q q y y e r I T ~ ~ Y Y Y U U P r S n =           X                     ",
"    0 ;Xo   0 X             * q y y e e t t I I Y U P P r y w %                                     ",
"    0 1.                    . q w t P r y & $ 1 e e e e e w o                                       ",
"    X 4X<.O.o               X p w y t Y I X   o w e r r e *                                         ",
"      X 0 *                 X p q w w y $     0 w e e r ,                                           ",
"                              o q N N %       : w y y w                                             ",
"                                : V G %       : > > : o                                             ",
"                                . G H %     X > = ;                                                 ",
"                                  B H %     O - - N %                                               ",
"                                  B J :     X ; = = N B :                                           ",
"                                  N J >       . . = > > N O                                         ",
"                                  X .               . . X                                           "
};
