/* XPM */
static char *d5876b1461064bfbfbfeda77b4267172nA1zFxNIldynvvws[] = {
/* columns rows colors chars-per-pixel */
"50 50 228 2 ",
"   c #000000",
".  c #0A0607",
"X  c #080808",
"o  c #0A0B0B",
"O  c #140C0D",
"+  c #1A0F0F",
"@  c #0E120B",
"#  c #11150C",
"$  c #0F0E13",
"%  c #141314",
"&  c #181619",
"*  c #250D0C",
"=  c #23150F",
"-  c #270E13",
";  c #320E15",
":  c #241316",
">  c #2A1717",
",  c #34131A",
"<  c #38141C",
"1  c #1D2513",
"2  c #1E241B",
"3  c #24271B",
"4  c #2B341B",
"5  c #2E391D",
"6  c #313C1F",
"7  c #181723",
"8  c #2A1F22",
"9  c #391D22",
"0  c #1E202A",
"q  c #2B2725",
"w  c #362927",
"e  c #362D2A",
"r  c #2E3522",
"t  c #343526",
"y  c #343C23",
"u  c #3A3827",
"i  c #363329",
"p  c #272837",
"a  c #352D38",
"s  c #393236",
"d  c #521817",
"f  c #600F07",
"g  c #610E09",
"h  c #63100A",
"j  c #68110B",
"k  c #75120F",
"l  c #6B1416",
"z  c #741412",
"x  c #7C1511",
"c  c #781819",
"v  c #45271A",
"b  c #4D311D",
"n  c #67231A",
"m  c #5D1D2C",
"M  c #6A1B23",
"N  c #741A24",
"B  c #43292C",
"V  c #552B2D",
"C  c #562C31",
"Z  c #4D3430",
"A  c #573936",
"S  c #6A262A",
"D  c #6D2E2E",
"F  c #772427",
"G  c #662731",
"H  c #653234",
"J  c #6A3434",
"K  c #763934",
"L  c #33411F",
"P  c #354323",
"I  c #374625",
"U  c #3B4B25",
"Y  c #394329",
"T  c #3B4C29",
"R  c #3E5125",
"E  c #3F4933",
"W  c #454D2B",
"Q  c #425929",
"!  c #4A4738",
"~  c #58483B",
"^  c #68483D",
"/  c #7B433C",
"(  c #6D533F",
")  c #486129",
"_  c #2B2B44",
"`  c #382F49",
"'  c #2B3049",
"]  c #34354C",
"[  c #353654",
"{  c #3F3554",
"}  c #363B5C",
"|  c #3B3C58",
" . c #3B3E62",
".. c #4C3C48",
"X. c #423956",
"o. c #483D61",
"O. c #394157",
"+. c #3A4366",
"@. c #3B4369",
"#. c #3F4971",
"$. c #47484D",
"%. c #594842",
"&. c #4C5744",
"*. c #4E4B56",
"=. c #525558",
"-. c #694848",
";. c #794947",
":. c #67544B",
">. c #7A574B",
",. c #7F4C55",
"<. c #755B59",
"1. c #5F6859",
"2. c #454669",
"3. c #47526C",
"4. c #5C5C62",
"5. c #414C76",
"6. c #4B4E75",
"7. c #434F7A",
"8. c #44527D",
"9. c #4B597B",
"0. c #535977",
"q. c #6D5D66",
"w. c #69656F",
"e. c #747779",
"r. c #871B16",
"t. c #931E18",
"y. c #97261B",
"u. c #91281D",
"i. c #A7351E",
"p. c #87282C",
"a. c #962A24",
"s. c #97362E",
"d. c #A42A23",
"f. c #AB3529",
"g. c #B6342C",
"h. c #B83A32",
"j. c #C53C33",
"k. c #C93B31",
"l. c #8D443A",
"z. c #954A3B",
"x. c #9D503B",
"c. c #B7472A",
"v. c #BD5F2F",
"b. c #B54834",
"n. c #A7573A",
"m. c #BE783C",
"M. c #D34436",
"N. c #C95931",
"B. c #E5493D",
"V. c #D26D38",
"C. c #E7613C",
"Z. c #E67539",
"A. c #874C45",
"S. c #87574B",
"D. c #9C5349",
"F. c #98574D",
"G. c #895853",
"H. c #A75D45",
"J. c #A85A4E",
"K. c #8C605D",
"L. c #98655D",
"P. c #AA684B",
"I. c #A9665B",
"U. c #B46659",
"Y. c #895D60",
"T. c #8C6462",
"R. c #886465",
"E. c #956966",
"W. c #956967",
"Q. c #9B6D68",
"!. c #99716E",
"~. c #A46D65",
"^. c #BB6C64",
"/. c #A4736C",
"(. c #AA746C",
"). c #B7786C",
"_. c #AB7E72",
"`. c #C04E45",
"'. c #CC7747",
"]. c #ED634E",
"[. c #CB7767",
"{. c #C7796A",
"}. c #7C807F",
"|. c #DC8731",
" X c #AB8173",
".X c #C9844D",
"XX c #CC8272",
"oX c #C78678",
"OX c #D18C70",
"+X c #D38B79",
"@X c #475684",
"#X c #495886",
"$X c #4C5D8D",
"%X c #4E5F90",
"&X c #576489",
"*X c #4F6091",
"=X c #526394",
"-X c #56699C",
";X c #7D7982",
":X c #596DA3",
">X c #5D72A9",
",X c #6277AD",
"<X c #647AB4",
"1X c #697FBA",
"2X c #7E818D",
"3X c #6D83BD",
"4X c #908186",
"5X c #8B8990",
"6X c #AF9290",
"7X c #9C9BA4",
"8X c #A6A4AB",
"9X c #B7A8AB",
"0X c #ACACB4",
"qX c #B5B3BA",
"wX c #C78E80",
"eX c #CE9F89",
"rX c #DA9887",
"tX c #E19F8D",
"yX c #D9B196",
"uX c #E4AC99",
"iX c #C8BBBD",
"pX c #EDBBA9",
"aX c #BEBFC6",
"sX c #C6C5CC",
"dX c #CCCCD3",
"fX c #D4D4D7",
"gX c #F5D1C1",
"hX c #DDDEE2",
/* pixels */
"                                                                                                    ",
"                                & ] 3.&X9.&X&X9.O.o                                                 ",
"                            p &X,X3X3X3X3X3X1X>X-X&Xp                                               ",
"                        o 2.=X$X:X3X3X3X3X1X<X>X-X$X&Xp                                             ",
"                      o +.8.5.#X-X,X<X<X<X>X:X:X=X#X7.0.%                                           ",
"                      p 5.+.5.8.%X-X:X:X:X-X-X=X%X@X8.6.]                                           ",
"                    o +.} @.5.7.@X$X=X=X=X=X=X=X$X#X8.2.|                                           ",
"                    o 8.[ +.#.7.@X#X$X$X%X%X*X=X$X#X8.2.X.o                                         ",
"                    o &X[ } @.5.8.@X#X$X$X*X=X=X$X@X7.2.X.y 1                                       ",
"                      @.} [  .#.8.8.@X#X$X=X=X$X#X8.#. .X.T 2 _ 0                                   ",
"                      7  .] } @.7.8.@X8.7.0.w.w.{ *.] [ { a p 2.| o                                 ",
"                        ' [ [ +.#.#.5.$.!.uXuX6X-.^ J Z ` { { X.p                                   ",
"                        o [ ] } @.@.X.q B wXyX*.).A.-.~ q p _ p o                                   ",
"                      & $ 7 ` [ } ..G.-.G.q.2. XXX<.7XaX-.& o                                       ",
"                    7 o.` 7 ` ` ` s ] } +.+...rXwXR.A _.oXu o                                       ",
"                    $ { { ` _ p >.I.s _ ] [ -.+XuXoXoX+XtX X4 # # o                                 ",
"                      % p p B ~ ( oXG.a a a I.+XpXgXpXrX+XXX>.y R 1                                 ",
"                      o 2 ^ F.^ ~ rXuXwXoX).+X[.XX{.[.U.).).~.u y U o                               ",
"                      o 2 ~ S.y ( +XrXrXtX+XoXF.D.D.A.G.~.(.(.~ 4 4 #                               ",
"                        2 R U y ~.{.{.XXoXF.L.L.S.A.S.;.Q.(./.:.5 4 o                               ",
"                        4 U y 6 L.).).).).~.A V C A Z G.(./.Q.:.P 5 o                               ",
"                        3 U P 4 >./.(.(././.~.L.G.K.E././.Q.E.! I 5                                 ",
"                        # U 4 4 ! E.Q.Q.Q./././.Q.Q.T.E.Q.E.<.P P 3                                 ",
"                        o 4 y y P :.T.E.E.E.E.E.T.W P :.E.<.Y T 5 @                                 ",
"                          o 3 P I P %.R.T.T.T.T.>.P Q ) ~ y Q P 3                                   ",
"                            O b b P P y ! :.<.:.t 6 P Q R Q ) b a.n .                               ",
"                          * f.k.f.v 4 y T P R P 4 L L P I W n n x d.a.-                             ",
"                        d h.j.d.r.j f v U I 6 6 4 5 6 6 &.%.S r.k x y.f.v .                         ",
"                      * d.y.r.j g f f x w E %.Z u 4 4 ! q.H D r.u.k k y.j.D = =     % %             ",
"                    . F u.j g g f h h x d s w.4.%.u =.4X;.J H p.f.x k k r.t.V.'./ Z )._.w           ",
"                  o d f.x g h h h j z y.f.4.7X2X5X5X6XH.l.K ;.6XM.y.x k k i.i.g.b.^.U.tXwXq         ",
"                > m.N.r.j l l l l c a.M.C.8XdXdXfXyXP..Xn.A.9XsX`.N.r.z l f.r.r.U.J.D.U.).w         ",
"              . J.].d.i.r.l N N c y.M.C.Z.qXsXiXOXH.x.H.P.9XhXdX^.V.a.N M p.N p.^.z.J.U./..         ",
"              J ].g.x z a.F S c r.j.B.Z.N.S.A.l.n.'.z.n.eXhXfXsX6XN.f.F < S m J ^.D.XX+Xw           ",
"              -.Y.s.c M F p.N c d.k.M.Z.c.H K l.z.n.'.eXfXfXsXqX6Xb.g.p.n .   . A I.J.G.o           ",
"              4.8X6XK G G F p.p.f.j.g.|.a.C H / K.9XiX4XsXaX0X7X}.s.c.c.S         & w o             ",
"      o a $.% =.0X8XC - . , S b.N.N.v.V.,.;X5X7X0XqX0X5X0X7X}.&.Y F c.F ;                           ",
"      =.e.$.;X8X&           . 9 C K K H ! 1.e.e.e.e.1.&.&.E I I t M d O                             ",
"      4.o   $ &               % e e i t t y P P I T T T T T P t e : .                               ",
"      4.o                     o w e i i t i i t t y Y y y y t i %                                   ",
"      $.e.w.%                   8 e i y P t r o o 3 t t t t t &                                     ",
"        % %                     & s e t Y T r     > t t t t r o                                     ",
"                                & s e e e 3 o   . e t t t r o                                       ",
"                                  & B B B       . q w t t 3                                         ",
"                                  . V H C       . , , > O                                           ",
"                                    9 J V       + ; ; :                                             ",
"                                    : J V       : ; , 9 O .                                         ",
"                                    + K H       O - - , V C +                                       ",
"                                    O H C         . . : , 9 w o                                     ",
"                                      .                 . .                                         "
};
