/* XPM */
static char *_f1d90927a044f8bc6ce1af85cf0d654X3sghgPYSqI2TiV6[] = {
/* columns rows colors chars-per-pixel */
"50 50 225 2 ",
"   c #000000",
".  c #0A0707",
"X  c #0B0B0A",
"o  c #120B0C",
"O  c #1A0B0D",
"+  c #11140C",
"@  c #0D0D11",
"#  c #1C0D10",
"$  c #121214",
"%  c #191615",
"&  c #13141A",
"*  c #330E0E",
"=  c #280C12",
"-  c #330E16",
";  c #261A18",
":  c #241A1D",
">  c #37151A",
",  c #1C2117",
"<  c #25251F",
"1  c #242A1C",
"2  c #37241A",
"3  c #26301A",
"4  c #2C341B",
"5  c #2E3A1D",
"6  c #313A1E",
"7  c #191A23",
"8  c #251E26",
"9  c #3E1822",
"0  c #1F2232",
"q  c #272627",
"w  c #332D25",
"e  c #392729",
"r  c #342B2B",
"t  c #2D3922",
"y  c #333526",
"u  c #333D23",
"i  c #3A3827",
"p  c #363329",
"a  c #353A28",
"s  c #252737",
"d  c #342F37",
"f  c #383638",
"g  c #481814",
"h  c #5A1817",
"j  c #620F0B",
"k  c #64100C",
"l  c #6C120E",
"z  c #73130F",
"x  c #681312",
"c  c #6D161C",
"v  c #751512",
"b  c #7B1816",
"n  c #5A2116",
"m  c #431C25",
"M  c #5B1A25",
"N  c #6B1B27",
"B  c #731B25",
"V  c #482627",
"C  c #56292B",
"Z  c #463C28",
"A  c #503521",
"S  c #5B2B33",
"D  c #453334",
"F  c #5B3936",
"G  c #652B2B",
"H  c #762621",
"J  c #6D2931",
"K  c #682A35",
"L  c #6B3435",
"P  c #653A39",
"I  c #763636",
"U  c #34401F",
"Y  c #354323",
"T  c #394525",
"R  c #374824",
"E  c #3A442A",
"W  c #3A4C29",
"Q  c #3F5228",
"!  c #3E4534",
"~  c #6F4B19",
"^  c #45482D",
"/  c #435727",
"(  c #474333",
")  c #534936",
"_  c #445239",
"`  c #6A4939",
"'  c #4D622E",
"]  c #2E2E45",
"[  c #342E49",
"{  c #2D3249",
"}  c #37344B",
"|  c #343654",
" . c #373857",
".. c #373F62",
"X. c #3A3E61",
"o. c #433A56",
"O. c #703F41",
"+. c #443D62",
"@. c #3B445E",
"#. c #394164",
"$. c #3D466D",
"%. c #3D486A",
"&. c #3F4A73",
"*. c #48474A",
"=. c #514F4B",
"-. c #664647",
";. c #754948",
":. c #655248",
">. c #7A544C",
",. c #665055",
"<. c #7C5753",
"1. c #5A6556",
"2. c #444667",
"3. c #4A506C",
"4. c #424B74",
"5. c #414E79",
"6. c #4E5477",
"7. c #44527D",
"8. c #655664",
"9. c #755F68",
"0. c #66676A",
"q. c #6C6C75",
"w. c #717474",
"e. c #851A17",
"r. c #8A1C16",
"t. c #8B2118",
"y. c #93241A",
"u. c #A9351D",
"i. c #801F21",
"p. c #8A2B2D",
"a. c #952A27",
"s. c #953329",
"d. c #833D39",
"f. c #A2322B",
"g. c #A93428",
"h. c #B5332B",
"j. c #B43728",
"k. c #C53F2E",
"l. c #C23A32",
"z. c #8A4339",
"x. c #954B3A",
"c. c #B44F2E",
"v. c #A74B35",
"b. c #956437",
"n. c #B66430",
"m. c #C55B2C",
"M. c #D54238",
"N. c #CF5530",
"B. c #E6533B",
"V. c #D16C34",
"C. c #8E5048",
"Z. c #89564A",
"A. c #8B5954",
"S. c #975B57",
"D. c #AF5E56",
"F. c #96754F",
"G. c #876458",
"H. c #966459",
"J. c #B26853",
"K. c #855F64",
"L. c #8A6667",
"P. c #926665",
"I. c #946968",
"U. c #9D6E69",
"Y. c #8C6F73",
"T. c #A76E64",
"R. c #A3726B",
"E. c #AB756B",
"W. c #AD756D",
"Q. c #B8766A",
"!. c #B87771",
"~. c #E25744",
"^. c #C47253",
"/. c #E76B4B",
"(. c #C57768",
"). c #C77A6B",
"_. c #EB863D",
"`. c #BE8A7D",
"'. c #E6B24E",
"]. c #CB8676",
"[. c #D58A78",
"{. c #DBAB69",
"}. c #455582",
"|. c #495986",
" X c #4C5C8C",
".X c #4F5F8E",
"XX c #4F6191",
"oX c #516494",
"OX c #56689A",
"+X c #7C7D86",
"@X c #64759D",
"#X c #596DA3",
"$X c #5E73AA",
"%X c #6276AB",
"&X c #667CB6",
"*X c #A67E82",
"=X c #7E8282",
"-X c #6D83BC",
";X c #7085BF",
":X c #91868C",
">X c #8C8C93",
",X c #928C93",
"<X c #97949D",
"1X c #B39697",
"2X c #9A98A3",
"3X c #A5A5AE",
"4X c #B6A6AB",
"5X c #ABA9B1",
"6X c #B6B5BA",
"7X c #C98F82",
"8X c #C39285",
"9X c #DB9A88",
"0X c #E09F8D",
"qX c #CDAB8D",
"wX c #E6A18E",
"eX c #E4A998",
"rX c #CEB9B6",
"tX c #EEB8A4",
"yX c #F4C7B3",
"uX c #BCBCC3",
"iX c #C5C3C8",
"pX c #CDCDD4",
"aX c #D7D7DC",
"sX c #E2DFE0",
"dX c #E1E2E5",
/* pixels */
"                                                                            ` ;                     ",
"                                                                          w {.'.2                   ",
"                                X s ] d $                                   F.'.n..                 ",
"                        . s 3.@X-X-X&X$XOX2.&                                 ~ ~                   ",
"                      s @X&X-X;X;X-X&X%XOX X5.$                                                     ",
"                    @.%XoX%X-X-X&X&X$X#XOX X7.2.@                                                   ",
"                  | oX5.|.#X$X$X$X#XOXoXoX X7.4.s                                                   ",
"                &  X$.4.7. XoXOXOXoXoXXXoX X}.4. .                                                  ",
"                { 5...&.5.7. X X XXX XXXXX X}.4.+.a t . .                                           ",
"                $... .$.4.7.}.|. X XXXXXoX X}.$.X.*., 3.2..                                         ",
"                %.6.| #.$.5.7.}. X XXX X7.4.2.| |  .} 2.+.X                                         ",
"                7 OX} | #.4.7.7.}.7.6.Y.8X=.G.D D ] | } s                                           ",
"                  #. .|  .$.5.5.&.=.8XtXqX,.S.` -.D s 7                                             ",
"                  & #.| | ..$.$.o.8 P 8X8.`.S.,X=.I.w                 . :       -.T.>.;             ",
"                    & #.[ | ..} A.-.8.2.-.eXT.:XW.9X8Xy X + +         <.9Xe o -.].9XT.;             ",
"                  @ @ 0 [ } [ d [ |  . .O.[.eX7X9X9X0XQ.Z Y 1           Z.].).9XQ.(.o               ",
"                . o.o.8 [ ] r Q.P s { { ;.[.tXyXwX).).Q.H.4 u ,         P [.(.0X).D.                ",
"                  ] } [ s r i T.].;.>.>.].(.).^.D.A.T.W.R.( 4 $       . C.D.).9X).F                 ",
"                  . & q ` C.) G.eXeXwX9X7XH.C.C.Z.A.S.E.U.:.5 %       b.~.f.J.Q.>..                 ",
"                    % 1 >.H.6 Z.[.[.[.].A.U.A.>.<.P R.R.I.:.Y 3     O V.j.r.i.I .                   ",
"                    X q y ^ 4 T.!.).!.!.H.P S G -.H.R.U.P.:.R ,   C g.r.c.e.B m                     ",
"                      1 ' u 5 >.W.W.W.E.R.R.R.R.R.U.U.I.L.T R G g.h.r.b b s.p.=                     ",
"                      1 Y R 5 ^ U.R.R.R.R.R.U.P.) ^ G.I.( Q i t.e.b v l x M O                       ",
"                      . ' u 4 5 :.P.P.I.I.P.P.A.Y / ' i W / n z l l x x N #                         ",
"                        u 4 Y Y R ) L.I.L.L.I.) 5 R Q / / Z v z x c c M o                           ",
"                        X + t 6 R R U E ( ( a 4 6 Y u E Z b r.z c N G o                             ",
"                            X V A 4 5 Y Q Y / 5 4 u 5 1.-.G r.t.z N #                               ",
"                            h M.h.x g 1 T i i i 4 4 ! q.P G H u.b h                                 ",
"                          o l.l.r.j l g X 2 F F Z ( +XL.L G K.g.c.b *                               ",
"                          s.l.t.j j j b = . & 8.,.q.:Xz.d.;.pX!.N.y.c .                             ",
"                        g h.e.j j j k t.s.+X3XuX6X{.].v.z.4XaX4XM.m.e.>                             ",
"                        g r.j j j k b k./.6XpXsX{.x.x.^.R.dXaXiXD.N.a.N                             ",
"                        p.y.j k c B f.B._.4X1XS.V.n.x.J.aXaXpX6X*XN.g.s.>                           ",
"                        a.v k c B i.M.B.V.G I x.v.n.J.rXaXpXuX5X<Xg.m.c.M                           ",
"                      b.V.u.y.B b h.M.N.V.G I d.A.1X4XiXiXuX5X<X1.H c.N O                           ",
"                    . /.g.v b s.p.h.h.m.v.-.9.,XuXiX:X<X6X3X=X_ a C N O                             ",
"                    ; /.f.b N J v.c.m.V.O.<X2X2X2X2X>X=Xw._ R Y y e .                               ",
"                    2 S.S.d.J 9 V S C V i u ! =.=._ W W W R T a w                                   ",
"                      q.6XiXm   : e p y y a u E E E W T Y u y p :                                   ",
"                      q 2Xq     . r p p y y p w < < y y y y p p o                                   ",
"                  f q.>X0.        : r p a Y u ,     q w y a a w                                     ",
"                q >X$ & .         $ D r p E W ,     q y y y y %                                     ",
"                } *.              % f r r w q     . d w y y %                                       ",
"                8 q.% *.$           : e e e       . e w w w $                                       ",
"                  d q.f             % S K :       # - > : X                                         ",
"                                    . P L o       > = -                                             ",
"                                      L L .     . - - C X                                           ",
"                                      L L       . = = - V O                                         ",
"                                      P S           . - > V #                                       ",
"                                                      . # ; o                                       "
};
