/* XPM */
static char *_1548333516b4a92bc55ace00cd43494zucroRA7JPkyybqt[] = {
/* columns rows colors chars-per-pixel */
"50 50 231 2 ",
"   c #000000",
".  c #0A0505",
"X  c #080807",
"o  c #090709",
"O  c #0C0C0A",
"+  c #140908",
"@  c #120B0C",
"#  c #0E110D",
"$  c #16160C",
"%  c #0D0E12",
"&  c #0E1017",
"*  c #171715",
"=  c #13131C",
"-  c #1C1A1B",
";  c #2E100F",
":  c #230C13",
">  c #2D0C13",
",  c #340F17",
"<  c #281819",
"1  c #37161A",
"2  c #1C211B",
"3  c #24261A",
"4  c #36251B",
"5  c #2B331B",
"6  c #2E391D",
"7  c #33351B",
"8  c #313C1E",
"9  c #1C1D29",
"0  c #221F2E",
"q  c #391B22",
"w  c #282627",
"e  c #312D25",
"r  c #362628",
"t  c #352C2A",
"y  c #3A2C2D",
"u  c #333426",
"i  c #343C24",
"p  c #383927",
"a  c #363329",
"s  c #272737",
"d  c #303230",
"f  c #363338",
"g  c #5F0F07",
"h  c #471515",
"j  c #5D1415",
"k  c #620F07",
"l  c #610F09",
"z  c #67110F",
"x  c #6B110D",
"c  c #73120F",
"v  c #7A130F",
"b  c #6A1212",
"n  c #6D151A",
"m  c #731411",
"M  c #7A1918",
"N  c #502A1A",
"B  c #58391A",
"V  c #6E2117",
"C  c #511723",
"Z  c #6B1A27",
"A  c #761C25",
"S  c #6E1E31",
"D  c #462728",
"F  c #4C2D2C",
"G  c #45362A",
"H  c #552B32",
"J  c #5B3733",
"K  c #6A2827",
"L  c #792729",
"P  c #6D2932",
"I  c #663736",
"U  c #783836",
"Y  c #35431F",
"T  c #354323",
"R  c #3A4325",
"E  c #394A24",
"W  c #374329",
"Q  c #3B442B",
"!  c #3A4B2A",
"~  c #3E5226",
"^  c #3C4437",
"/  c #44452D",
"(  c #445A29",
")  c #524936",
"_  c #445338",
"`  c #674829",
"'  c #66453D",
"]  c #4C652A",
"[  c #2B2B43",
"{  c #372C46",
"}  c #322E49",
"|  c #2B3046",
" . c #383447",
".. c #33324D",
"X. c #343452",
"o. c #393957",
"O. c #363C5C",
"+. c #383F61",
"@. c #473844",
"#. c #453D5A",
"$. c #483C62",
"%. c #3A4154",
"&. c #3B4165",
"*. c #3D466D",
"=. c #3E486F",
"-. c #3F4971",
";. c #474949",
":. c #5B4C4D",
">. c #47495A",
",. c #6B4E46",
"<. c #734A46",
"1. c #7C4D4C",
"2. c #695859",
"3. c #7A5959",
"4. c #596554",
"5. c #73645B",
"6. c #47486A",
"7. c #56556B",
"8. c #414B73",
"9. c #424F79",
"0. c #43527C",
"q. c #4B557B",
"w. c #675A66",
"e. c #63646C",
"r. c #716D6F",
"t. c #747678",
"y. c #841B16",
"u. c #921F1A",
"i. c #8D2215",
"p. c #93231B",
"a. c #9A291D",
"s. c #A7351D",
"d. c #882927",
"f. c #992925",
"g. c #983329",
"h. c #8C3A35",
"j. c #A62C26",
"k. c #AA3A29",
"l. c #B7382E",
"z. c #B83931",
"x. c #CB3C33",
"c. c #8C4537",
"v. c #9A4C3B",
"b. c #9D523A",
"n. c #B24428",
"m. c #AA5135",
"M. c #BA6638",
"N. c #C5532B",
"B. c #CF5231",
"V. c #E2493D",
"C. c #D57131",
"Z. c #EA7A39",
"A. c #854D47",
"S. c #904B47",
"D. c #87524C",
"F. c #935348",
"G. c #875C57",
"H. c #945D56",
"J. c #B5564A",
"K. c #AF5951",
"L. c #89645E",
"P. c #996A5B",
"I. c #B06E4B",
"U. c #A3685B",
"Y. c #B46558",
"T. c #905C62",
"R. c #896565",
"E. c #916765",
"W. c #976A66",
"Q. c #9D6E6A",
"!. c #9F706A",
"~. c #8E7176",
"^. c #A97166",
"/. c #A4726B",
"(. c #AD756B",
"). c #B9776A",
"_. c #BE7D71",
"`. c #D36147",
"'. c #E07A44",
"]. c #C47669",
"[. c #C77869",
"{. c #7F827F",
"}. c #BB8629",
"|. c #DDA235",
" X c #A5817F",
".X c #BB8476",
"XX c #CC8E6D",
"oX c #C58677",
"OX c #CD8373",
"+X c #D78B7A",
"@X c #E2AF60",
"#X c #455481",
"$X c #495785",
"%X c #4B5C8B",
"&X c #515E83",
"*X c #4F6191",
"=X c #526495",
"-X c #58699A",
";X c #7D7E84",
":X c #62729C",
">X c #5A6EA4",
",X c #5E73AA",
"<X c #6275A4",
"1X c #657CB5",
"2X c #837D87",
"3X c #6C82BD",
"4X c #7286BD",
"5X c #84848A",
"6X c #91898F",
"7X c #948D97",
"8X c #94949D",
"9X c #B29392",
"0X c #9B9BA4",
"qX c #AEADB5",
"wX c #B3B0B2",
"eX c #D99887",
"rX c #CE9E92",
"tX c #E29C89",
"yX c #E6AD8C",
"uX c #E2A392",
"iX c #C7B4B2",
"pX c #EBB7A4",
"aX c #F2D1BF",
"sX c #BDBCC3",
"dX c #C0BFC4",
"fX c #BFC0C5",
"gX c #C8C8CE",
"hX c #CBCBD1",
"jX c #D6D6DB",
"kX c #E4DCC8",
"lX c #DEE0E3",
/* pixels */
"                                    O % o                                                           ",
"                            % w %.q.-X-X&X%.=                                                       ",
"                        & >.:X4X3X3X1X1X>X=X&Xf .                                                   ",
"                      s :X1X3X4X3X3X1X1X>X=X$Xq.|                                                   ",
"                    X.<X=X>X3X3X3X1X,X>X-X=X$X9.6.=                                                 ",
"                  s -X9.#X=X,X,X,X>X-X=X=X*X$X0.8.s                                                 ",
"                o q.8.-.0.$X=X=X-X=X=X*X*X*X$X0.8.X.O #                                             ",
"                9 $XO.*.8.0.$X%X*X*X*X*X*X*X%X#X-.#._ 6 w s .                   @ G G $             ",
"                [ 8.O.*.-.9.#X$X$X%X%X*X=X*X$X0.*.o. .w 6.6.=                 X I.yX@X|.+           ",
"                s &XX.&.*.8.0.#X$X$X%X*X$X0.*.6...X.o. .#.o.%                 O }.@X|.}..           ",
"                & :XX.o.&.=.0.0.#X#X#Xq.~. X:.<.J G [ } } 9                     $ B N +             ",
"                  O.&...O.&.8.9.9.8.w.rXpX9X3.H.OX.X:.9 =                         G <.<.@           ",
"                  % O.O.X.O.*.-.*. .y G.rXw..XY.eXuX(.t .               * 3.r   4 .XeXU.@           ",
"                    = O...X.+.&.#.' I G.7.3.uX)._.(.oX.XG $ $ 3         - (.H.' oX).OX4             ",
"                      & X.} X.X.@.:.>.&.O.D.eXeX(.oX+XuX_.) Y 6 X         F +X[.+X[.].4             ",
"                  %  .= s { } @.<.f | ....1.+XpXaXpX+XOX].U.p 8 5 .       1 [.].tXtXY.<             ",
"                  0 $. .{ { s ) ).1.s f f (.+XtX+X[.U.(.(.(.,.5 3 .       I J.Y.OX[.<.              ",
"                  o [ } [ s I / oXeX.XoXoXeXY.K.K.F.D.H.^./.L.i 5 .     4 '.z.g.K.D.@               ",
"                    . - w D.F.R P.uXuXeXeXoX(.H.A.D.<.G./.!.E.Q T O   . K C.p.y.A q                 ",
"                      2 3 G.' i U.OXOXOX[.D.<.<.' ' <././.W.R.R T O . U p.a.s.M S :                 ",
"                      # 3 / T p ^._._.).(./.H.G.H.W././.Q.E.2.T i K g.l.y.v y.d.L +                 ",
"                      . 8 ( 8 6 G.(.(.(././././.Q.L.,.L.W.R.Q ! N f.u.y.c x b C @                   ",
"                        5 T T 6 / W.Q.!.Q.Q.Q.Q.E./ E ) 5./ ~ R V v c c x b Z :                     ",
"                        O ] 8 6 6 :.R.E.E.E.E.E.G.R E ( ~ ~ ( B c x b b b j :                       ",
"                        . T 5 T T T ) 3.R.R.R.R.) 6 i E ~ E B V v m n Z S :                         ",
"                          # $ i i T E i p Q Q R 8 5 T 8 R ;.I M y.m n S 1                           ",
"                              O 4 B 7 8 i ~ E E Y 5 6 6 ^ e.I K p.i.m h                             ",
"                              ; z.z.M h 3 6 R G G p 5 p e.w.P P d.k.y.j .                           ",
"                            . g.x.f.x x j O < F J J G w.7X1.I I ~.n.n.M h                           ",
"                            h x.j.c k k m h   9 w.2.2.2XQ.h.U R.hXY.B.a.M +                         ",
"                          + z.j.m k g k c g.G 8X0XqXwXXXI.b.S.iXjX9XB.N.y.h                         ",
"                          ; p.c k k k b a.B./.gXjXkXXXv.I.I.9XlXjXsXJ.B.f.L +                       ",
"                          ; f.x l z n M x.Z.oXdXiXY.M.b.b.XXjXjXhXwX/.N.k.g.N                       ",
"                          N j.x z n A f.V.Z.J.1.c.v.M.b.I.iXjXhXfXqX7Xk.n.n.K                       ",
"                        . L p.m n A d.x.V.Z.g.I h.c.F.oXiXhXhXfXqX0Xt.L N.d.,                       ",
"                        ` Z.k.a.f.L j.x.N.C.d.J <.~.wXjXr.qXsXqX8X4.Q H A 1                         ",
"                        v.`.v b A g.k.l.n.C.1.2X0X0XqXwX8X0X0Xt._ Q p D ,                           ",
"                      . J.V.y.n S L m.M.M.c.2.;X5X5X5X{.4.4._ ! ! i a %                             ",
"                      . S.T.H.U S < D F y a i i W Q ! ! ! ! ! T i p e .                             ",
"                        e 7XgX6X: o y y a a u p i i Q W W W i u u a 3                               ",
"                        . e.6X-     - y a u u u a e * - e u u u u p *                               ",
"                      w ;.6X;.      . r t p W W i *     < e u p p u X                               ",
"                    d ;Xf >.O         w y t p Q ! $     w e u u u 3                                 ",
"                    e.f               w y t t u 3     o t e u u 3                                   ",
"                    7.d   - o         O y y y <       . r e e u *                                   ",
"                    - t.r.t.o           q H H @       @ , q e * X                                   ",
"                      % w o             < I H .       < > > o                                       ",
"                                        < U F       @ , , D O                                       ",
"                                        < U D       @ > > 1 :                                       ",
"                                        1 U D         @ : , D D .                                   "
};
