/* XPM */
static char *fa9e5713dfb84c4bc045b338c0601e83nbcvzKC1brv9Jx1g[] = {
/* columns rows colors chars-per-pixel */
"50 50 240 2 ",
"   c #000000",
".  c #060606",
"X  c #0C0B04",
"o  c #140D04",
"O  c #180E03",
"+  c #171607",
"@  c #1B1505",
"#  c #1A1905",
"$  c #211A05",
"%  c #282508",
"&  c #282509",
"*  c #2C2A0A",
"=  c #322E0A",
"-  c #3B2B09",
";  c #37320B",
":  c #2C2B11",
">  c #323212",
",  c #492D08",
"<  c #56390C",
"1  c #693A09",
"2  c #544B09",
"3  c #5C560C",
"4  c #4C4813",
"5  c #5A561B",
"6  c #62440C",
"7  c #6B4B0E",
"8  c #78490B",
"9  c #64530E",
"0  c #695A0E",
"q  c #72530E",
"w  c #78580E",
"e  c #664D11",
"r  c #755913",
"t  c #66620D",
"y  c #6B630E",
"u  c #75660E",
"i  c #77720E",
"p  c #7F740F",
"a  c #6A621A",
"s  c #776616",
"d  c #7D731B",
"f  c #5C5722",
"g  c #6A5F21",
"h  c #716424",
"j  c #777524",
"k  c #7A7327",
"l  c #85550C",
"z  c #835A0E",
"x  c #8C5A0C",
"c  c #885C19",
"v  c #935711",
"b  c #A8580D",
"n  c #A85610",
"m  c #86690D",
"M  c #8C6B0D",
"N  c #95650D",
"B  c #966C0E",
"V  c #85740C",
"C  c #8B740E",
"Z  c #8B7C0E",
"A  c #957A0D",
"S  c #856C11",
"D  c #8B6D12",
"F  c #986711",
"G  c #857512",
"H  c #8B7311",
"J  c #8C7B11",
"K  c #8F791F",
"L  c #937313",
"P  c #917D11",
"I  c #A86A0D",
"U  c #B96C0D",
"Y  c #B2730B",
"T  c #B5790E",
"R  c #BA7A0E",
"E  c #AC6A10",
"W  c #A37D15",
"Q  c #B87714",
"!  c #867927",
"~  c #AE7923",
"^  c #C3690E",
"/  c #CB760E",
"(  c #C27D0D",
")  c #C77013",
"_  c #E56C0B",
"`  c #E77508",
"'  c #8C830F",
"]  c #8D880E",
"[  c #93840D",
"{  c #9C820C",
"}  c #948A0E",
"|  c #9A910E",
" . c #8D8517",
".. c #8E8A14",
"X. c #938212",
"o. c #958911",
"O. c #9A8C13",
"+. c #998919",
"@. c #9E9114",
"#. c #A6830D",
"$. c #A98C0F",
"%. c #AB910E",
"&. c #A59C0E",
"*. c #A78311",
"=. c #AB8C10",
"-. c #A59715",
";. c #B99C17",
":. c #A8A20F",
">. c #BEA10E",
",. c #B2AA0E",
"<. c #BBAD0F",
"1. c #BEBB0F",
"2. c #A6A112",
"3. c #ADA613",
"4. c #AFA812",
"5. c #BEA211",
"6. c #B4AA11",
"7. c #B8A917",
"8. c #BBB414",
"9. c #B9B416",
"0. c #BDBA15",
"q. c #8E832A",
"w. c #948426",
"e. c #978829",
"r. c #938D2C",
"t. c #9A952A",
"y. c #9D952C",
"u. c #948E32",
"i. c #9B9536",
"p. c #A48F27",
"a. c #A6932A",
"s. c #A49B2A",
"d. c #AB9B2C",
"f. c #B7992B",
"g. c #A59D33",
"h. c #ABA62E",
"j. c #B5AB2B",
"k. c #B8B128",
"l. c #A9A531",
"z. c #B8B535",
"x. c #BAB534",
"c. c #BDBA3E",
"v. c #C7830B",
"b. c #CA810C",
"n. c #DA8C0D",
"m. c #DD910D",
"M. c #D88D1E",
"N. c #C79C12",
"B. c #E6880C",
"V. c #F48609",
"C. c #F3890A",
"Z. c #E6990C",
"A. c #F19A0C",
"S. c #FD9E08",
"D. c #EC971C",
"F. c #C9A70D",
"G. c #CAAC0E",
"H. c #D3A60E",
"J. c #CBB50E",
"K. c #C2BD0E",
"L. c #D4BB0D",
"P. c #DBBC0E",
"I. c #C6A912",
"U. c #C6AC12",
"Y. c #C1BB12",
"T. c #C3B318",
"R. c #DBBE11",
"E. c #D9B41C",
"W. c #F8A40B",
"Q. c #F6BA0A",
"!. c #FEBE0A",
"~. c #EEB315",
"^. c #CF8D22",
"/. c #C4BB2A",
"(. c #D8B620",
"). c #C3BC36",
"_. c #F4AD24",
"`. c #CBC50E",
"'. c #DAC50F",
"]. c #D2CE0E",
"[. c #DFDB0F",
"{. c #C6C212",
"}. c #CBC612",
"|. c #CDC911",
" X c #DBC511",
".X c #D3CE11",
"XX c #D6D211",
"oX c #D8D310",
"OX c #DEDA12",
"+X c #E8CA0D",
"@X c #FEC407",
"#X c #FECE07",
"$X c #FEC30B",
"%X c #F1CF0C",
"&X c #FDCD09",
"*X c #E1DA0E",
"=X c #FED507",
"-X c #F2D10C",
";X c #FDD409",
":X c #F8DA0B",
">X c #E6CB11",
",X c #FDC411",
"<X c #FDC810",
"1X c #FECE1B",
"2X c #E1DC11",
"3X c #FED31B",
"4X c #F9D71A",
"5X c #FCE50A",
"6X c #FAEA0D",
"7X c #FBF40A",
"8X c #F4E318",
"9X c #C9C329",
"0X c #D4CD28",
"qX c #CAC334",
"wX c #CBC636",
"eX c #C2C139",
"rX c #D0CD38",
"tX c #DED935",
"yX c #D6D43C",
"uX c #DAD538",
"iX c #ECD327",
"pX c #FBDB24",
"aX c #E3CE36",
"sX c #E9DC36",
"dX c #FEE426",
"fX c #FDE428",
"gX c #F1EB28",
"hX c #FEEF2D",
"jX c #FDF42E",
"kX c #FDFA2C",
"lX c #EBE53B",
"zX c #EDE938",
"xX c #F2EC35",
"cX c #F6ED3A",
"vX c #FEF633",
"bX c #F8F438",
"nX c #9E9C43",
"mX c #BFBE42",
"MX c #C0BE40",
"NX c #D7D643",
/* pixels */
"                                                                                                    ",
"                                                                                                    ",
"                                                                                                    ",
"                                            .         .                                             ",
"                                    X = 0 ..,.K.K.K.Y.6...3 > X                                     ",
"                                * i K.XX|.0.&.} { { } &.T.9XNXeXj :                                 ",
"                            & ..XXXX| r I 7 J.B b.b.B H.! ! q.t.NXyX..&                             ",
"                        . y OX].u A U.x W.I U.M Y Y x sXt.sXaX! a.u ].OXt .                         ",
"                      # 2.2X' N R *.>Xe N S X.&.&.-.s.i.k e.! /.~.w N o.2X:.#                       ",
"                    * Y.|.P H ( m.7 J 7.8.6.@.{ Z  .y.g.z.c.z.P r T W.q G |.K.*                     ",
"                  * {.Y.9 '.>X2 C 8.6.J $.F.P.Q.pXbXxXtXqXd.L 6.8.C z =. X9 Y./.:                   ",
"                # Y.Y.z ( M Z 3.8.H 5.:X:X;X!.fX)./.vXvXhX<X-X5.C 8.2.J D ^ c /.Y.#                 ",
"                2.|.9 ( Z.w 0.o.%.%X;X=X;X$XfXlXf 5 lXhX$X&X;X;X-X$.o.0.q M.f.9 |.2..               ",
"              t 2XG R.M w 8.[ U.;X;X;X;X$XfXbXt.nXi.e.,X#X;X;X;X;X;XG.P k.s S R.P 2Xt               ",
"            & OXo.w =.H 0.[ P.;X;X;X;X!.fXvXwXy.mXz.H F.;X;X;X;X;X;X@X(.+.8.J >XH ' OX&             ",
"            ...XN W.l 2.o.U.;X;X;X;X!.fXvXzX! bXeX;.:Xu %X;X;X;X;X@X1XpXN.o.3.6 ( N ]. .            ",
"          * XXp z T C 8.%.;X;X;X=X$XfXvXvXh.eXkXT.<.5X<.=.;X;X=X@X3X4X$X;X%.8.H m.Y a yX:           ",
"          i XX#.>Xr 8.H %X;X;X;X$XdXvXvXuXt.jX6XY.U.5X5XP P.;X@X1XpX$X;X;X%XC 8.7 p.t.yXj           ",
"        X K.} u I.X.6.>.;X;X;X!.fXvXjXbXr.sX6X7X-.O.5X5X'.C $X3X3X@X;X;X;X;XI.6. .lXqXt.eXX         ",
"        = XXS m.8 6.P :X=X;X!.fXjXvXvX).j.6X7X] X X Z 5X5X%.7.4X!.;X;X;X=X;X$XK z.g w.k NX>         ",
"        3 |.z Z.N 0.=.:X=X$XfXvXvXvXzX! 8XXX2   o o   2 L.iXd ~.;X;X;X;X;X@X3Xd.c.e.cXa.rX5         ",
"        ..Y.M B u 6.F.;X$XdXvXvXvXvXt.`.8.; @ 8 F v 8 O = j.U.A ;X;X;X;X@X3XvXqXz.q.d.h ).r.        ",
"        ,.&.L.%XO.@.P.!.fXvXvXvXvXrX+...$ 6 n.W.R E ` ^.6 @ Z X.G.;X;X@X3XvXvXtXi.u.wXqXh.7..       ",
"        K.[ B M &.{ Q.fXvXvXvXvXxXa 4 < b.W.S.S.R n D._._ U , 4 0 -X@X1XvXvXvXxXy.l.w.w.] K.        ",
"        K.{ b.Y &.Z fXvXvXvXvXhXW - Y A.S.S.S.W.U ~ D._ V.V.B.E - #.3XvXvXvXvXbXr.l.f.) A Y.        ",
"        K.{ v.Y &.w.bXvXvXvXhX,X#., Y A.S.W.S.C.Q ~ _ V.V.V.B.I - a.vXvXvXjXvXvXr.l.b ( { {.        ",
"        K.[ M l d.y.xXvXvXhX!.=X-Xu 4 < b.S.V.D.f.b C.V.C.U , ; g cXvXvXvXvXvXxXt.-.m M [ K.        ",
"        ,.&.N./.u.i.tXvXhX$X&X;X;XG.O.] $ 1 ^._.b E C./ 1 @ V H wXvXvXvXvXvXvXtX+.O.-XL.&.,.        ",
"        ..<.r d.! z.qXhX$X&X;X;X;X;X{ }.<.; @ 1 F v 8 O = ;./.y.vXvXvXvXvXvXjXN.,.y L D Y...        ",
"        3 0Xa.cXe.c.d.$X&X;X;X;X;X;X+XV gX0X2 X o o   2 L.iX! lXvXvXvXvXvXhX$X*.8.N Z.w |.3         ",
"        > NXk w.g k.L -X;X;X;X;X;X;X@X;.7.6X7X] X X Z -XpXh.z.jXvXvXvXvXhX!.&XJ 6.l B.M oX=         ",
"        X eXy.wXsXP 6.>.;X;X;X;X;X@X3XpXL *X7X7X-.-.:X4XuXr.bXvXvXvXvXjX$X#X>.6.X.I.s } Y.X         ",
"          j yXr.W 7 8.H -X;X;X;X@X1X3X!.L.o.7X7XY.5.8XbXr.uXjXvXvXvXjX,X&X-XC 8.0 +X{ .Xi           ",
"          : yXu Q m.H 8.%.;X;X@X3XpX@X;X;X%.K.7XT.k.vXz.h.vXvXvXvXjX$X&X;X%.8.C T z p XX*           ",
"            ' ].N ( 6 3.O.U.@X1X4X$X;X=X;X%XS 6XT.).cX! xXvXvXvXjX$X#X;XG.O.2.l W.N .X]             ",
"            & OX' D >XH 0.C E.pX$X;X=X;X=X;XH.+.MXc.r.wXvXvXvXhX,X&X;XP.J 0.G $.q o.OX&             ",
"              t 2XJ R.m 7 k. .N.;X;X;X;X;X@X3Xy.nXi.t.bXvXvXjX$X&X;XG.Z 8.q m P.G [.t               ",
"              X 2.}.9 U M.a 8.O.%.-X;X;X@X3XjXlXf f lXvXvXhX,X&X%X%.o.0.q Z.R 9 }.2.X               ",
"                @ 0.K.c f.S J 2.8.H >.&X3XvXvXvX)./.jXvXhX<X&X>.C 8.4.J M ( z {.1.+                 ",
"                  = 9X9X9  X=.l C 8.3.K g.qXsXzXbXbXzXtXN.*.J 6.8.H 6 >XR.9 {.}.=                   ",
"                    > 0.|.J w W.T q +.z.c.z.i.y.s.s.t.+.6.8.6.X.7 m.( D X.|.1.=                     ",
"                      @ 2.OXo.F 8  X).! e.j i.l.j.j.-. .S M e >X#.R N ' OX2.@                       ",
"                        X t [.].d y.! aXsXe.cXw.f.n M U.I W.x I.P u .XOXt X                         ",
"                            &  .yXuXu.q.! q.yXe.^ / B J.7 I r | .XXXo.&                             ",
"                                : j eXNXrX).j.' A { ' &.0..XXXY.i * .                               ",
"                                    X > a r.-.K.`.`.K.3.o.0 = X                                     ",
"                                              .     .                                               ",
"                                                                                                    ",
"                                                                                                    ",
"                                                                                                    "
};
