/* XPM */
static char *result[] = {
/* columns rows colors chars-per-pixel */
"50 50 69 1 ",
"  c black",
". c gray2",
"X c #090909",
"o c #020202",
"O c gray1",
"+ c #1B1B1B",
"@ c #272727",
"# c gray3",
"$ c #0E0E0E",
"% c #1D1D1D",
"& c gray14",
"* c #111111",
"= c #070707",
"- c #060606",
"; c gray7",
": c gray17",
"> c #323232",
", c gray10",
"< c #191919",
"1 c gray15",
"2 c #232323",
"3 c #161616",
"4 c gray11",
"5 c #202020",
"6 c gray16",
"7 c gray18",
"8 c #101010",
"9 c #252525",
"0 c #222222",
"q c #151515",
"w c gray12",
"e c #282828",
"r c #2A2A2A",
"t c #353535",
"y c #010101",
"u c #181818",
"i c #2C2C2C",
"p c #2F2F2F",
"a c gray5",
"s c #2D2D2D",
"d c gray19",
"f c gray9",
"g c gray8",
"h c #040404",
"j c #313131",
"k c #343434",
"l c gray20",
"z c gray21",
"x c #3A3A3A",
"c c #1E1E1E",
"v c #393939",
"b c #0C0C0C",
"n c gray24",
"m c gray13",
"M c #414141",
"N c gray23",
"B c gray25",
"V c gray6",
"C c #373737",
"Z c #0B0B0B",
"A c gray4",
"S c gray22",
"D c #3F3F3F",
"F c #3E3E3E",
"G c #3C3C3C",
"H c #434343",
"J c #464646",
"K c gray27",
"L c gray26",
/* pixels */
"                                                  ",
"                                                  ",
"                                                  ",
"                                                  ",
"                                                  ",
"                                                  ",
"                   .Xo      O+@#                  ",
"                 o$%&*=.-.OO;@:>,O                ",
"                -<1212,<3<4,5@6@7:#               ",
"               8909&96%qq3<we11@1rt-              ",
"              y%1&@e9@23u3u26e610e>.              ",
"               ,@6e6@6i54uwre66e6p08              ",
"              a4si6@:7d:45s7666r76f,g,$           ",
"           h#Xq3:issj>d>12jspprik4gw9rs=          ",
"          o+05ug%>>ldtkzt1>7dllxi<c6@66io         ",
"          a2161q;6lt7lkvkbpkjdkn0m6:91@i%         ",
"         Om&9es:m5>tkzMeOyyw>>Ns@lir669@ka        ",
"         821e6i>z:pBMtVy   ybdl0>l:rr@2975        ",
"        h2&@:ipt>kCzfOy      oZ>>djie6rs:.        ",
"        =&96rrlCkzN@y         heddk76:p7c         ",
"         ;&rp7klktCA           Aj>lktle,+y        ",
"         y<@7lzp>v2y           y3djtxrfu,#        ",
"         hf+eltltn-             o@xt1%+u3b        ",
"         Aqg+0jSDcy              -dw&5%m2%#       ",
"       #*4m5@15deOy              o:stlsi1&r$      ",
"      yu29:sCSzS5                O7p>jj7e6ru      ",
"      O,0&67k>tti                ojpk>pr@26+      ",
"      h411r7txkzM                OSjkkj>69:%      ",
"      .4&6rizS>tF                htdkdpp69r,      ",
"      .+2@epkCdtG                hFzvGzSk:p,      ",
"      Ow1@7jCStvk                y@vnxnHxt>#      ",
"       aep>zDGxJ8                 b:tkdksem.      ",
"       b%9e6dpidc                yd>ltjt>i:<      ",
"       u@1i7tzzSn                os7sspjssr%      ",
"      yu09eskkkCx                Oljdjp>l::m      ",
"      o+9@7skSttH                Opd>7sj7rrc      ",
"      ou2e6i>>dkS                Odjl>7jp6iw      ",
"      y,9@7pkzjtB                od>>ld>>7d,      ",
"       f1esjkttNn                yckSk7j>7p-      ",
"       X0dl>vxCC8                y+sjk7j>rr8      ",
"       ;21j>lSlzSO               yrpdjldjs:c      ",
"       f09rdtljkF.               y:ppps>dpp5      ",
"       <&97pkzkSK.               ydljltzk7i0      ",
"       +96d>zS>kL.               yrdzd>>7:rw      ",
"       u&rjpkz7>F.               ypjkCjkkii0      ",
"       <@6>lzv>>J.               yelkk>tkdCq      ",
"       ;&id>zzkn1y               y5ej7ijdss.      ",
"       Z+1::p>slg                y9pl>d>>p73      ",
"       ;91srdps>NO               y67dd>ji7rc      ",
"       844mm&02eiO               ym911e6620+      "
};
