/* XPM */
static char *_4086d0c5aa14981a5cbcfbc7206652bamDQjnK02oXtbU3l[] = {
/* columns rows colors chars-per-pixel */
"50 50 213 2 ",
"   c #000000",
".  c #0A0605",
"X  c #070905",
"o  c #090B06",
"O  c #050708",
"+  c #0C0D0A",
"@  c #130C0A",
"#  c #0E120B",
"$  c #13130D",
"%  c #0E1418",
"&  c #171411",
"*  c #171E10",
"=  c #1B1F13",
"-  c #21180E",
";  c #261917",
":  c #371816",
">  c #1D2515",
",  c #1E2719",
"<  c #22271A",
"1  c #232B1A",
"2  c #282B1D",
"3  c #382B1C",
"4  c #2B311D",
"5  c #38391E",
"6  c #121D23",
"7  c #172223",
"8  c #162731",
"9  c #152931",
"0  c #1B2C35",
"q  c #252521",
"w  c #2B2A24",
"e  c #3A2622",
"r  c #2E3B21",
"t  c #373726",
"y  c #203439",
"u  c #3A3A32",
"i  c #46221B",
"p  c #46371F",
"a  c #4C2925",
"s  c #4B2929",
"d  c #5A2928",
"f  c #5F2A29",
"g  c #433421",
"h  c #473B26",
"j  c #513E24",
"k  c #58312C",
"l  c #523E2C",
"z  c #4F3C33",
"x  c #573A35",
"c  c #6C2A28",
"v  c #6F302E",
"b  c #683836",
"n  c #783937",
"m  c #334326",
"M  c #3B462A",
"N  c #364929",
"B  c #3E562E",
"V  c #3C4632",
"C  c #474528",
"Z  c #544225",
"A  c #574327",
"S  c #5C4829",
"D  c #43542E",
"F  c #4F5229",
"G  c #53552B",
"H  c #5A5C2D",
"J  c #454836",
"K  c #544635",
"L  c #465231",
"P  c #455930",
"I  c #4A5C32",
"U  c #545433",
"Y  c #535933",
"T  c #5C5C37",
"R  c #565B38",
"E  c #644D29",
"W  c #66542D",
"Q  c #69522B",
"!  c #73592D",
"~  c #644938",
"^  c #6F5932",
"/  c #705B36",
"(  c #7A5F31",
")  c #4B6334",
"_  c #4D6736",
"`  c #596737",
"'  c #516E37",
"]  c #516E39",
"[  c #5C6C3A",
"{  c #527139",
"}  c #5A743B",
"|  c #5F783C",
" . c #68682E",
".. c #7E622F",
"X. c #626A3B",
"o. c #68683A",
"O. c #7D6839",
"+. c #66753F",
"@. c #797737",
"#. c #73723B",
"$. c #1E3642",
"%. c #213A46",
"&. c #24414E",
"*. c #254557",
"=. c #585344",
"-. c #51524A",
";. c #6C4B40",
":. c #774646",
">. c #7B4444",
",. c #615F51",
"<. c #686744",
"1. c #7B6740",
"2. c #6C7342",
"3. c #6E7B45",
"4. c #717746",
"5. c #727B43",
"6. c #787E46",
"7. c #666559",
"8. c #726F5E",
"9. c #75715E",
"0. c #6F7166",
"q. c #767465",
"w. c #7F7F73",
"e. c #863B38",
"r. c #87473B",
"t. c #98423E",
"y. c #846533",
"u. c #8B6B33",
"i. c #886C3A",
"p. c #837F37",
"a. c #95753B",
"s. c #884947",
"d. c #824C4C",
"f. c #8D4C4D",
"g. c #984746",
"h. c #8A5253",
"j. c #955453",
"k. c #9C5857",
"l. c #A84843",
"z. c #AA4B46",
"x. c #B3514C",
"c. c #AA5B59",
"v. c #B95A57",
"b. c #8F7D44",
"n. c #AE615F",
"m. c #B6605D",
"M. c #B76665",
"N. c #C56A67",
"B. c #C36D6B",
"V. c #CB716F",
"C. c #D4716D",
"Z. c #C47373",
"A. c #D87674",
"S. c #DD7976",
"D. c #E37D7A",
"F. c #698042",
"G. c #7B8446",
"H. c #738847",
"J. c #7A834B",
"K. c #7E894C",
"L. c #7F954C",
"P. c #7E8851",
"I. c #7F9250",
"U. c #7E806D",
"Y. c #7D8073",
"T. c #8A8538",
"R. c #A5A13D",
"E. c #818A4A",
"W. c #968A45",
"Q. c #83904F",
"!. c #838C52",
"~. c #8B9855",
"^. c #949C56",
"/. c #A78445",
"(. c #B28D44",
"). c #AB9C4C",
"_. c #8FA054",
"`. c #96A256",
"'. c #9AA75A",
"]. c #9DAA5A",
"[. c #9FB15B",
"{. c #A8A241",
"}. c #B6A74C",
"|. c #BBB346",
" X c #A1AE5B",
".X c #A4B35D",
"XX c #A8B75F",
"oX c #ABBA5D",
"OX c #949A60",
"+X c #868677",
"@X c #A2A666",
"#X c #A9B563",
"$X c #AEBD60",
"%X c #B1BF62",
"&X c #B1BA6B",
"*X c #B1AD71",
"=X c #C29B4B",
"-X c #D6AA4D",
";X c #D9AB4E",
":X c #D8AB52",
">X c #CBB450",
",X c #CEC054",
"<X c #D3C455",
"1X c #DACB50",
"2X c #E2CF5B",
"3X c #E8D55B",
"4X c #EEDA5C",
"5X c #F0DB5C",
"6X c #C8CD76",
"7X c #949582",
"8X c #A6A796",
"9X c #ADB09D",
"0X c #E58584",
/* pixels */
"                                                                                                    ",
"                                            . . ; e s b >.; .                                       ",
"                                        ; s d.M.>.b :.k.c.x h.s                                     ",
"                                      . B.c.:.n j.D.D.Z.b k.d.j.:.@                                 ",
"                                    @ >.B.f.D.n.n.A.D.j.V.D.0Xh.V.s                                 ",
"                                  . n g.b M.N.M.f.C.A.k.D.S.D.f.j.j.e .                             ",
"                                  2 r.c v n M.N.>.S.V.m.C.g.S.c.A.>.M.k                             ",
"                                # ) Y n g.n g.x.v C.C.z.z.f x.v.S.j.k.~                             ",
"                                m ' ' I l b d t.v z.x.l.l.f l.v.s.n.;.*X=                           ",
"                              # ) ' ' ' ' ) X.~ a e.t.e.c a t.n a 1.^.6X<.                          ",
"                              > ' ' ' ' ' ' [.$X`.6.o.U T U o.K.`.oXoX%X@X                          ",
"                              r ' ' ' ' ' } oXoXoXoX$X$X$X$XoXoXoXoXoXoX&Xo                         ",
"                              m ' ' ' ' ' F.oXoXoX%XoXoXoXoXoXoXoXoXoXoX&X$                         ",
"                              m ' ' ' ' ' H.oX].2.X.5..XoXoXoXoXoXoXoXoX#X$                         ",
"                              m { ' ' ' ' L.`.` '.#X].X..XoXoXoXoXoX~.5.K.#                         ",
"                              > N ' ' ' ' _.Y #.@.#.E.OX5.oXoXoXoXK.6.].J.X                         ",
"                              1 N D ' ' ) ^.H ,X4X2X}.b.G %XoXoX].C 6.G.~.<                         ",
"                              m ) P ' ' I `.H |.4X5X}.).#.%XoXoXG.@.<X<XW.t                         ",
"                              m ' B ' ' I  XG R.1X4X5X,X5.oXoXoX5.p.1X3XW.C                         ",
"                              * _ ) ' ' D .X+. .{.>X,X#.].oXoXoXE. .|.3X>X$                         ",
"                                1 P B ' I 5..X2.F G X.].oXoXoXoX].Y @.T.h                           ",
"                                  , _ ' ' P Y K.#XoXoXoXoXoX[ +..X].G.!.M                           ",
"                                  + ) ' ' ' ' ) [ XXoXoXoX X[ _ '.oX&XR                             ",
"                                    * _ ' ' ' { `  XoX].J.P.4.Q. X#XL                               ",
"                                      > ' ' ' ' } .X'.3 z K x =.K M                                 ",
"                                  @ 3 j 1 I ' ' | .XX.: : i c c l $                                 ",
"                                @ 3 i./ 3 2 N ] } '.K s.>.x k f T +                                 ",
"                              & h Z (.:XS Z p 5 D +.z d.z :.=.=.R = 2                               ",
"                            $ h Q j u.-X=Xj u.Q O.W t 1 J U 4.R C Y t +                             ",
"                            ; g y.E E a.i.g (.a.i.O.C <.u + X X J.R t +                             ",
"                            & S u.y.Z j 5 ` O.W 3 h ~.m < o . T .XX.t o                             ",
"                            ; ! u...=X( > ~..X'.J.3.I D H.^.3.[ r o                                 ",
"                            3 y.u.y.;X-X/.h 5 4 * X X * > * X                                       ",
"                            p u.Q Z a.;X-X=X=Xl e                                                   ",
"                            Z u.Z t / :X;X;X-Xa.S X                                                 ",
"                            Z u.( g a.-X=X(././.^ .                                                 ",
"                            - j E Q /.b.i.1.<.9.0..                                                 ",
"                              u ,.q.+Xw.,.0.U.8X8Xq                                                 ",
"                              u 8.q.9X+X  -.8.+X7XJ                                                 ",
"                              u q.7.8XY.  w 8.8.,.q                                                 ",
"                              q ,.7.7.-.  + u q 1 L o                                               ",
"                                o 1 1         + [ 2.                                                ",
"                              X P I.4         # F.2.                                                ",
"                              r I.R           # +.2.                                                ",
"                            X ) P.$           X D `                                                 ",
"                            % N V %           O 7 y $.8 O                                           ",
"                          . 0 %.&.*.9         + 0 &.&.*.9                                           ",
"                          . 6 8 0 0 0 O       O % 6 6 6 6                                           ",
"                              O . . O                                                               ",
"                                                                                                    "
};
